<?xml version="1.0" encoding="utf-8" standalone="no"?>
<!DOCTYPE svg PUBLIC "-//W3C//DTD SVG 1.1//EN"
  "http://www.w3.org/Graphics/SVG/1.1/DTD/svg11.dtd">
<svg xmlns:xlink="http://www.w3.org/1999/xlink" width="460.8pt" height="345.6pt" viewBox="0 0 460.8 345.6" xmlns="http://www.w3.org/2000/svg" version="1.1">
 <metadata>
  <rdf:RDF xmlns:dc="http://purl.org/dc/elements/1.1/" xmlns:cc="http://creativecommons.org/ns#" xmlns:rdf="http://www.w3.org/1999/02/22-rdf-syntax-ns#">
   <cc:Work>
    <dc:type rdf:resource="http://purl.org/dc/dcmitype/StillImage"/>
    <dc:date>2022-11-22T19:19:26.222785</dc:date>
    <dc:format>image/svg+xml</dc:format>
    <dc:creator>
     <cc:Agent>
      <dc:title>Matplotlib v3.5.1, https://matplotlib.org/</dc:title>
     </cc:Agent>
    </dc:creator>
   </cc:Work>
  </rdf:RDF>
 </metadata>
 <defs>
  <style type="text/css">*{stroke-linejoin: round; stroke-linecap: butt}</style>
 </defs>
 <g id="figure_1">
  <g id="patch_1">
   <path d="M 0 345.6 
L 460.8 345.6 
L 460.8 0 
L 0 0 
z
" style="fill: #ffffff"/>
  </g>
  <g id="axes_1">
   <g id="patch_2">
    <path d="M 57.6 162.432 
L 414.72 162.432 
L 414.72 41.472 
L 57.6 41.472 
z
" style="fill: #ffffff"/>
   </g>
   <g id="matplotlib.axis_1">
    <g id="xtick_1">
     <g id="line2d_1">
      <defs>
       <path id="md631b458b7" d="M 0 0 
L 0 3.5 
" style="stroke: #000000; stroke-width: 0.8"/>
      </defs>
      <g>
       <use xlink:href="#md631b458b7" x="129.617689" y="162.432" style="stroke: #000000; stroke-width: 0.8"/>
      </g>
     </g>
     <g id="text_1">
      <!-- 900 -->
      <g transform="translate(120.073939 177.030437)scale(0.1 -0.1)">
       <defs>
        <path id="DejaVuSans-39" d="M 703 97 
L 703 672 
Q 941 559 1184 500 
Q 1428 441 1663 441 
Q 2288 441 2617 861 
Q 2947 1281 2994 2138 
Q 2813 1869 2534 1725 
Q 2256 1581 1919 1581 
Q 1219 1581 811 2004 
Q 403 2428 403 3163 
Q 403 3881 828 4315 
Q 1253 4750 1959 4750 
Q 2769 4750 3195 4129 
Q 3622 3509 3622 2328 
Q 3622 1225 3098 567 
Q 2575 -91 1691 -91 
Q 1453 -91 1209 -44 
Q 966 3 703 97 
z
M 1959 2075 
Q 2384 2075 2632 2365 
Q 2881 2656 2881 3163 
Q 2881 3666 2632 3958 
Q 2384 4250 1959 4250 
Q 1534 4250 1286 3958 
Q 1038 3666 1038 3163 
Q 1038 2656 1286 2365 
Q 1534 2075 1959 2075 
z
" transform="scale(0.015625)"/>
        <path id="DejaVuSans-30" d="M 2034 4250 
Q 1547 4250 1301 3770 
Q 1056 3291 1056 2328 
Q 1056 1369 1301 889 
Q 1547 409 2034 409 
Q 2525 409 2770 889 
Q 3016 1369 3016 2328 
Q 3016 3291 2770 3770 
Q 2525 4250 2034 4250 
z
M 2034 4750 
Q 2819 4750 3233 4129 
Q 3647 3509 3647 2328 
Q 3647 1150 3233 529 
Q 2819 -91 2034 -91 
Q 1250 -91 836 529 
Q 422 1150 422 2328 
Q 422 3509 836 4129 
Q 1250 4750 2034 4750 
z
" transform="scale(0.015625)"/>
       </defs>
       <use xlink:href="#DejaVuSans-39"/>
       <use xlink:href="#DejaVuSans-30" x="63.623047"/>
       <use xlink:href="#DejaVuSans-30" x="127.246094"/>
      </g>
     </g>
    </g>
    <g id="xtick_2">
     <g id="line2d_2">
      <g>
       <use xlink:href="#md631b458b7" x="207.583199" y="162.432" style="stroke: #000000; stroke-width: 0.8"/>
      </g>
     </g>
     <g id="text_2">
      <!-- 1000 -->
      <g transform="translate(194.858199 177.030437)scale(0.1 -0.1)">
       <defs>
        <path id="DejaVuSans-31" d="M 794 531 
L 1825 531 
L 1825 4091 
L 703 3866 
L 703 4441 
L 1819 4666 
L 2450 4666 
L 2450 531 
L 3481 531 
L 3481 0 
L 794 0 
L 794 531 
z
" transform="scale(0.015625)"/>
       </defs>
       <use xlink:href="#DejaVuSans-31"/>
       <use xlink:href="#DejaVuSans-30" x="63.623047"/>
       <use xlink:href="#DejaVuSans-30" x="127.246094"/>
       <use xlink:href="#DejaVuSans-30" x="190.869141"/>
      </g>
     </g>
    </g>
    <g id="xtick_3">
     <g id="line2d_3">
      <g>
       <use xlink:href="#md631b458b7" x="285.54871" y="162.432" style="stroke: #000000; stroke-width: 0.8"/>
      </g>
     </g>
     <g id="text_3">
      <!-- 1100 -->
      <g transform="translate(272.82371 177.030437)scale(0.1 -0.1)">
       <use xlink:href="#DejaVuSans-31"/>
       <use xlink:href="#DejaVuSans-31" x="63.623047"/>
       <use xlink:href="#DejaVuSans-30" x="127.246094"/>
       <use xlink:href="#DejaVuSans-30" x="190.869141"/>
      </g>
     </g>
    </g>
    <g id="xtick_4">
     <g id="line2d_4">
      <g>
       <use xlink:href="#md631b458b7" x="363.51422" y="162.432" style="stroke: #000000; stroke-width: 0.8"/>
      </g>
     </g>
     <g id="text_4">
      <!-- 1200 -->
      <g transform="translate(350.78922 177.030437)scale(0.1 -0.1)">
       <defs>
        <path id="DejaVuSans-32" d="M 1228 531 
L 3431 531 
L 3431 0 
L 469 0 
L 469 531 
Q 828 903 1448 1529 
Q 2069 2156 2228 2338 
Q 2531 2678 2651 2914 
Q 2772 3150 2772 3378 
Q 2772 3750 2511 3984 
Q 2250 4219 1831 4219 
Q 1534 4219 1204 4116 
Q 875 4013 500 3803 
L 500 4441 
Q 881 4594 1212 4672 
Q 1544 4750 1819 4750 
Q 2544 4750 2975 4387 
Q 3406 4025 3406 3419 
Q 3406 3131 3298 2873 
Q 3191 2616 2906 2266 
Q 2828 2175 2409 1742 
Q 1991 1309 1228 531 
z
" transform="scale(0.015625)"/>
       </defs>
       <use xlink:href="#DejaVuSans-31"/>
       <use xlink:href="#DejaVuSans-32" x="63.623047"/>
       <use xlink:href="#DejaVuSans-30" x="127.246094"/>
       <use xlink:href="#DejaVuSans-30" x="190.869141"/>
      </g>
     </g>
    </g>
   </g>
   <g id="matplotlib.axis_2">
    <g id="ytick_1">
     <g id="line2d_5">
      <defs>
       <path id="mef079e473b" d="M 0 0 
L -3.5 0 
" style="stroke: #000000; stroke-width: 0.8"/>
      </defs>
      <g>
       <use xlink:href="#mef079e473b" x="57.6" y="156.600033" style="stroke: #000000; stroke-width: 0.8"/>
      </g>
     </g>
     <g id="text_5">
      <!-- 0 -->
      <g transform="translate(44.2375 160.399252)scale(0.1 -0.1)">
       <use xlink:href="#DejaVuSans-30"/>
      </g>
     </g>
    </g>
    <g id="ytick_2">
     <g id="line2d_6">
      <g>
       <use xlink:href="#mef079e473b" x="57.6" y="117.211708" style="stroke: #000000; stroke-width: 0.8"/>
      </g>
     </g>
     <g id="text_6">
      <!-- 20000 -->
      <g transform="translate(18.7875 121.010927)scale(0.1 -0.1)">
       <use xlink:href="#DejaVuSans-32"/>
       <use xlink:href="#DejaVuSans-30" x="63.623047"/>
       <use xlink:href="#DejaVuSans-30" x="127.246094"/>
       <use xlink:href="#DejaVuSans-30" x="190.869141"/>
       <use xlink:href="#DejaVuSans-30" x="254.492188"/>
      </g>
     </g>
    </g>
    <g id="ytick_3">
     <g id="line2d_7">
      <g>
       <use xlink:href="#mef079e473b" x="57.6" y="77.823383" style="stroke: #000000; stroke-width: 0.8"/>
      </g>
     </g>
     <g id="text_7">
      <!-- 40000 -->
      <g transform="translate(18.7875 81.622602)scale(0.1 -0.1)">
       <defs>
        <path id="DejaVuSans-34" d="M 2419 4116 
L 825 1625 
L 2419 1625 
L 2419 4116 
z
M 2253 4666 
L 3047 4666 
L 3047 1625 
L 3713 1625 
L 3713 1100 
L 3047 1100 
L 3047 0 
L 2419 0 
L 2419 1100 
L 313 1100 
L 313 1709 
L 2253 4666 
z
" transform="scale(0.015625)"/>
       </defs>
       <use xlink:href="#DejaVuSans-34"/>
       <use xlink:href="#DejaVuSans-30" x="63.623047"/>
       <use xlink:href="#DejaVuSans-30" x="127.246094"/>
       <use xlink:href="#DejaVuSans-30" x="190.869141"/>
       <use xlink:href="#DejaVuSans-30" x="254.492188"/>
      </g>
     </g>
    </g>
    <g id="text_8">
     <!-- Passive -->
     <g transform="translate(-9.687812 120.440281)rotate(-90)scale(0.1 -0.1)">
      <defs>
       <path id="DejaVuSans-50" d="M 1259 4147 
L 1259 2394 
L 2053 2394 
Q 2494 2394 2734 2622 
Q 2975 2850 2975 3272 
Q 2975 3691 2734 3919 
Q 2494 4147 2053 4147 
L 1259 4147 
z
M 628 4666 
L 2053 4666 
Q 2838 4666 3239 4311 
Q 3641 3956 3641 3272 
Q 3641 2581 3239 2228 
Q 2838 1875 2053 1875 
L 1259 1875 
L 1259 0 
L 628 0 
L 628 4666 
z
" transform="scale(0.015625)"/>
       <path id="DejaVuSans-61" d="M 2194 1759 
Q 1497 1759 1228 1600 
Q 959 1441 959 1056 
Q 959 750 1161 570 
Q 1363 391 1709 391 
Q 2188 391 2477 730 
Q 2766 1069 2766 1631 
L 2766 1759 
L 2194 1759 
z
M 3341 1997 
L 3341 0 
L 2766 0 
L 2766 531 
Q 2569 213 2275 61 
Q 1981 -91 1556 -91 
Q 1019 -91 701 211 
Q 384 513 384 1019 
Q 384 1609 779 1909 
Q 1175 2209 1959 2209 
L 2766 2209 
L 2766 2266 
Q 2766 2663 2505 2880 
Q 2244 3097 1772 3097 
Q 1472 3097 1187 3025 
Q 903 2953 641 2809 
L 641 3341 
Q 956 3463 1253 3523 
Q 1550 3584 1831 3584 
Q 2591 3584 2966 3190 
Q 3341 2797 3341 1997 
z
" transform="scale(0.015625)"/>
       <path id="DejaVuSans-73" d="M 2834 3397 
L 2834 2853 
Q 2591 2978 2328 3040 
Q 2066 3103 1784 3103 
Q 1356 3103 1142 2972 
Q 928 2841 928 2578 
Q 928 2378 1081 2264 
Q 1234 2150 1697 2047 
L 1894 2003 
Q 2506 1872 2764 1633 
Q 3022 1394 3022 966 
Q 3022 478 2636 193 
Q 2250 -91 1575 -91 
Q 1294 -91 989 -36 
Q 684 19 347 128 
L 347 722 
Q 666 556 975 473 
Q 1284 391 1588 391 
Q 1994 391 2212 530 
Q 2431 669 2431 922 
Q 2431 1156 2273 1281 
Q 2116 1406 1581 1522 
L 1381 1569 
Q 847 1681 609 1914 
Q 372 2147 372 2553 
Q 372 3047 722 3315 
Q 1072 3584 1716 3584 
Q 2034 3584 2315 3537 
Q 2597 3491 2834 3397 
z
" transform="scale(0.015625)"/>
       <path id="DejaVuSans-69" d="M 603 3500 
L 1178 3500 
L 1178 0 
L 603 0 
L 603 3500 
z
M 603 4863 
L 1178 4863 
L 1178 4134 
L 603 4134 
L 603 4863 
z
" transform="scale(0.015625)"/>
       <path id="DejaVuSans-76" d="M 191 3500 
L 800 3500 
L 1894 563 
L 2988 3500 
L 3597 3500 
L 2284 0 
L 1503 0 
L 191 3500 
z
" transform="scale(0.015625)"/>
       <path id="DejaVuSans-65" d="M 3597 1894 
L 3597 1613 
L 953 1613 
Q 991 1019 1311 708 
Q 1631 397 2203 397 
Q 2534 397 2845 478 
Q 3156 559 3463 722 
L 3463 178 
Q 3153 47 2828 -22 
Q 2503 -91 2169 -91 
Q 1331 -91 842 396 
Q 353 884 353 1716 
Q 353 2575 817 3079 
Q 1281 3584 2069 3584 
Q 2775 3584 3186 3129 
Q 3597 2675 3597 1894 
z
M 3022 2063 
Q 3016 2534 2758 2815 
Q 2500 3097 2075 3097 
Q 1594 3097 1305 2825 
Q 1016 2553 972 2059 
L 3022 2063 
z
" transform="scale(0.015625)"/>
      </defs>
      <use xlink:href="#DejaVuSans-50"/>
      <use xlink:href="#DejaVuSans-61" x="55.802734"/>
      <use xlink:href="#DejaVuSans-73" x="117.082031"/>
      <use xlink:href="#DejaVuSans-73" x="169.181641"/>
      <use xlink:href="#DejaVuSans-69" x="221.28125"/>
      <use xlink:href="#DejaVuSans-76" x="249.064453"/>
      <use xlink:href="#DejaVuSans-65" x="308.244141"/>
     </g>
     <!-- stress -->
     <g transform="translate(1.51 116.74575)rotate(-90)scale(0.1 -0.1)">
      <defs>
       <path id="DejaVuSans-74" d="M 1172 4494 
L 1172 3500 
L 2356 3500 
L 2356 3053 
L 1172 3053 
L 1172 1153 
Q 1172 725 1289 603 
Q 1406 481 1766 481 
L 2356 481 
L 2356 0 
L 1766 0 
Q 1100 0 847 248 
Q 594 497 594 1153 
L 594 3053 
L 172 3053 
L 172 3500 
L 594 3500 
L 594 4494 
L 1172 4494 
z
" transform="scale(0.015625)"/>
       <path id="DejaVuSans-72" d="M 2631 2963 
Q 2534 3019 2420 3045 
Q 2306 3072 2169 3072 
Q 1681 3072 1420 2755 
Q 1159 2438 1159 1844 
L 1159 0 
L 581 0 
L 581 3500 
L 1159 3500 
L 1159 2956 
Q 1341 3275 1631 3429 
Q 1922 3584 2338 3584 
Q 2397 3584 2469 3576 
Q 2541 3569 2628 3553 
L 2631 2963 
z
" transform="scale(0.015625)"/>
      </defs>
      <use xlink:href="#DejaVuSans-73"/>
      <use xlink:href="#DejaVuSans-74" x="52.099609"/>
      <use xlink:href="#DejaVuSans-72" x="91.308594"/>
      <use xlink:href="#DejaVuSans-65" x="130.171875"/>
      <use xlink:href="#DejaVuSans-73" x="191.695312"/>
      <use xlink:href="#DejaVuSans-73" x="243.794922"/>
     </g>
     <!-- (N m^{-2}) -->
     <g transform="translate(12.707813 131.591062)rotate(-90)scale(0.1 -0.1)">
      <defs>
       <path id="DejaVuSans-28" d="M 1984 4856 
Q 1566 4138 1362 3434 
Q 1159 2731 1159 2009 
Q 1159 1288 1364 580 
Q 1569 -128 1984 -844 
L 1484 -844 
Q 1016 -109 783 600 
Q 550 1309 550 2009 
Q 550 2706 781 3412 
Q 1013 4119 1484 4856 
L 1984 4856 
z
" transform="scale(0.015625)"/>
       <path id="DejaVuSans-4e" d="M 628 4666 
L 1478 4666 
L 3547 763 
L 3547 4666 
L 4159 4666 
L 4159 0 
L 3309 0 
L 1241 3903 
L 1241 0 
L 628 0 
L 628 4666 
z
" transform="scale(0.015625)"/>
       <path id="DejaVuSans-20" transform="scale(0.015625)"/>
       <path id="DejaVuSans-6d" d="M 3328 2828 
Q 3544 3216 3844 3400 
Q 4144 3584 4550 3584 
Q 5097 3584 5394 3201 
Q 5691 2819 5691 2113 
L 5691 0 
L 5113 0 
L 5113 2094 
Q 5113 2597 4934 2840 
Q 4756 3084 4391 3084 
Q 3944 3084 3684 2787 
Q 3425 2491 3425 1978 
L 3425 0 
L 2847 0 
L 2847 2094 
Q 2847 2600 2669 2842 
Q 2491 3084 2119 3084 
Q 1678 3084 1418 2786 
Q 1159 2488 1159 1978 
L 1159 0 
L 581 0 
L 581 3500 
L 1159 3500 
L 1159 2956 
Q 1356 3278 1631 3431 
Q 1906 3584 2284 3584 
Q 2666 3584 2933 3390 
Q 3200 3197 3328 2828 
z
" transform="scale(0.015625)"/>
       <path id="DejaVuSans-5e" d="M 2988 4666 
L 4684 2925 
L 4056 2925 
L 2681 4159 
L 1306 2925 
L 678 2925 
L 2375 4666 
L 2988 4666 
z
" transform="scale(0.015625)"/>
       <path id="DejaVuSans-7b" d="M 3272 -594 
L 3272 -1044 
L 3078 -1044 
Q 2300 -1044 2036 -812 
Q 1772 -581 1772 109 
L 1772 856 
Q 1772 1328 1603 1509 
Q 1434 1691 991 1691 
L 800 1691 
L 800 2138 
L 991 2138 
Q 1438 2138 1605 2317 
Q 1772 2497 1772 2963 
L 1772 3713 
Q 1772 4403 2036 4633 
Q 2300 4863 3078 4863 
L 3272 4863 
L 3272 4416 
L 3059 4416 
Q 2619 4416 2484 4278 
Q 2350 4141 2350 3700 
L 2350 2925 
Q 2350 2434 2208 2212 
Q 2066 1991 1722 1913 
Q 2069 1828 2209 1606 
Q 2350 1384 2350 897 
L 2350 122 
Q 2350 -319 2484 -456 
Q 2619 -594 3059 -594 
L 3272 -594 
z
" transform="scale(0.015625)"/>
       <path id="DejaVuSans-2d" d="M 313 2009 
L 1997 2009 
L 1997 1497 
L 313 1497 
L 313 2009 
z
" transform="scale(0.015625)"/>
       <path id="DejaVuSans-7d" d="M 800 -594 
L 1019 -594 
Q 1456 -594 1589 -459 
Q 1722 -325 1722 122 
L 1722 897 
Q 1722 1384 1862 1606 
Q 2003 1828 2350 1913 
Q 2003 1991 1862 2212 
Q 1722 2434 1722 2925 
L 1722 3700 
Q 1722 4144 1589 4280 
Q 1456 4416 1019 4416 
L 800 4416 
L 800 4863 
L 997 4863 
Q 1775 4863 2036 4633 
Q 2297 4403 2297 3713 
L 2297 2963 
Q 2297 2497 2465 2317 
Q 2634 2138 3078 2138 
L 3272 2138 
L 3272 1691 
L 3078 1691 
Q 2634 1691 2465 1509 
Q 2297 1328 2297 856 
L 2297 109 
Q 2297 -581 2036 -812 
Q 1775 -1044 997 -1044 
L 800 -1044 
L 800 -594 
z
" transform="scale(0.015625)"/>
       <path id="DejaVuSans-29" d="M 513 4856 
L 1013 4856 
Q 1481 4119 1714 3412 
Q 1947 2706 1947 2009 
Q 1947 1309 1714 600 
Q 1481 -109 1013 -844 
L 513 -844 
Q 928 -128 1133 580 
Q 1338 1288 1338 2009 
Q 1338 2731 1133 3434 
Q 928 4138 513 4856 
z
" transform="scale(0.015625)"/>
      </defs>
      <use xlink:href="#DejaVuSans-28"/>
      <use xlink:href="#DejaVuSans-4e" x="39.013672"/>
      <use xlink:href="#DejaVuSans-20" x="113.818359"/>
      <use xlink:href="#DejaVuSans-6d" x="145.605469"/>
      <use xlink:href="#DejaVuSans-5e" x="243.017578"/>
      <use xlink:href="#DejaVuSans-7b" x="326.806641"/>
      <use xlink:href="#DejaVuSans-2d" x="390.429688"/>
      <use xlink:href="#DejaVuSans-32" x="426.513672"/>
      <use xlink:href="#DejaVuSans-7d" x="490.136719"/>
      <use xlink:href="#DejaVuSans-29" x="553.759766"/>
     </g>
    </g>
   </g>
   <g id="line2d_8">
    <path d="M 73.832727 156.933818 
L 85.305138 156.802128 
L 96.233561 156.724487 
L 106.687668 156.677501 
L 116.723243 156.648413 
L 126.385775 156.630041 
L 135.712937 156.61823 
L 144.736354 156.610514 
L 153.482883 156.605401 
L 161.975567 156.601968 
L 170.23436 156.599606 
L 178.27668 156.597006 
L 186.117841 156.593447 
L 193.771397 156.58861 
L 201.249416 156.582081 
L 208.562697 156.573322 
L 215.720959 156.561643 
L 222.732979 156.546158 
L 229.606724 156.525734 
L 236.34945 156.498935 
L 242.967787 156.463938 
L 249.467818 156.418447 
L 255.855137 156.359572 
L 262.134904 156.283695 
L 268.311893 156.186297 
L 274.390529 156.061754 
L 280.374927 155.903087 
L 286.268916 155.701659 
L 292.076074 155.446817 
L 297.799744 155.12545 
L 303.44306 154.721468 
L 309.008962 154.215178 
L 314.500215 153.582531 
L 319.919422 152.794232 
L 325.269037 151.814674 
L 330.551378 150.60068 
L 335.768636 149.100005 
L 340.922886 147.249558 
L 346.016094 144.973317 
L 351.050127 142.179851 
L 356.026759 138.759412 
L 360.947676 134.580512 
L 365.814484 129.485902 
L 370.628713 123.287862 
L 375.391822 115.762678 
L 380.105206 106.644193 
L 384.770196 95.616277 
L 389.388066 82.304036 
L 393.960036 66.263591 
L 398.487273 46.970182 
" clip-path="url(#p7a2ed679e1)" style="fill: none; stroke: #0000ff; stroke-width: 1.5; stroke-linecap: square"/>
    <defs>
     <path id="m8475118980" d="M 0 3 
C 0.795609 3 1.55874 2.683901 2.12132 2.12132 
C 2.683901 1.55874 3 0.795609 3 0 
C 3 -0.795609 2.683901 -1.55874 2.12132 -2.12132 
C 1.55874 -2.683901 0.795609 -3 0 -3 
C -0.795609 -3 -1.55874 -2.683901 -2.12132 -2.12132 
C -2.683901 -1.55874 -3 -0.795609 -3 0 
C -3 0.795609 -2.683901 1.55874 -2.12132 2.12132 
C -1.55874 2.683901 -0.795609 3 0 3 
z
" style="stroke: #0000ff"/>
    </defs>
    <g clip-path="url(#p7a2ed679e1)">
     <use xlink:href="#m8475118980" x="73.832727" y="156.933818" style="fill: #0000ff; stroke: #0000ff"/>
     <use xlink:href="#m8475118980" x="85.305138" y="156.802128" style="fill: #0000ff; stroke: #0000ff"/>
     <use xlink:href="#m8475118980" x="96.233561" y="156.724487" style="fill: #0000ff; stroke: #0000ff"/>
     <use xlink:href="#m8475118980" x="106.687668" y="156.677501" style="fill: #0000ff; stroke: #0000ff"/>
     <use xlink:href="#m8475118980" x="116.723243" y="156.648413" style="fill: #0000ff; stroke: #0000ff"/>
     <use xlink:href="#m8475118980" x="126.385775" y="156.630041" style="fill: #0000ff; stroke: #0000ff"/>
     <use xlink:href="#m8475118980" x="135.712937" y="156.61823" style="fill: #0000ff; stroke: #0000ff"/>
     <use xlink:href="#m8475118980" x="144.736354" y="156.610514" style="fill: #0000ff; stroke: #0000ff"/>
     <use xlink:href="#m8475118980" x="153.482883" y="156.605401" style="fill: #0000ff; stroke: #0000ff"/>
     <use xlink:href="#m8475118980" x="161.975567" y="156.601968" style="fill: #0000ff; stroke: #0000ff"/>
     <use xlink:href="#m8475118980" x="170.23436" y="156.599606" style="fill: #0000ff; stroke: #0000ff"/>
     <use xlink:href="#m8475118980" x="178.27668" y="156.597006" style="fill: #0000ff; stroke: #0000ff"/>
     <use xlink:href="#m8475118980" x="186.117841" y="156.593447" style="fill: #0000ff; stroke: #0000ff"/>
     <use xlink:href="#m8475118980" x="193.771397" y="156.58861" style="fill: #0000ff; stroke: #0000ff"/>
     <use xlink:href="#m8475118980" x="201.249416" y="156.582081" style="fill: #0000ff; stroke: #0000ff"/>
     <use xlink:href="#m8475118980" x="208.562697" y="156.573322" style="fill: #0000ff; stroke: #0000ff"/>
     <use xlink:href="#m8475118980" x="215.720959" y="156.561643" style="fill: #0000ff; stroke: #0000ff"/>
     <use xlink:href="#m8475118980" x="222.732979" y="156.546158" style="fill: #0000ff; stroke: #0000ff"/>
     <use xlink:href="#m8475118980" x="229.606724" y="156.525734" style="fill: #0000ff; stroke: #0000ff"/>
     <use xlink:href="#m8475118980" x="236.34945" y="156.498935" style="fill: #0000ff; stroke: #0000ff"/>
     <use xlink:href="#m8475118980" x="242.967787" y="156.463938" style="fill: #0000ff; stroke: #0000ff"/>
     <use xlink:href="#m8475118980" x="249.467818" y="156.418447" style="fill: #0000ff; stroke: #0000ff"/>
     <use xlink:href="#m8475118980" x="255.855137" y="156.359572" style="fill: #0000ff; stroke: #0000ff"/>
     <use xlink:href="#m8475118980" x="262.134904" y="156.283695" style="fill: #0000ff; stroke: #0000ff"/>
     <use xlink:href="#m8475118980" x="268.311893" y="156.186297" style="fill: #0000ff; stroke: #0000ff"/>
     <use xlink:href="#m8475118980" x="274.390529" y="156.061754" style="fill: #0000ff; stroke: #0000ff"/>
     <use xlink:href="#m8475118980" x="280.374927" y="155.903087" style="fill: #0000ff; stroke: #0000ff"/>
     <use xlink:href="#m8475118980" x="286.268916" y="155.701659" style="fill: #0000ff; stroke: #0000ff"/>
     <use xlink:href="#m8475118980" x="292.076074" y="155.446817" style="fill: #0000ff; stroke: #0000ff"/>
     <use xlink:href="#m8475118980" x="297.799744" y="155.12545" style="fill: #0000ff; stroke: #0000ff"/>
     <use xlink:href="#m8475118980" x="303.44306" y="154.721468" style="fill: #0000ff; stroke: #0000ff"/>
     <use xlink:href="#m8475118980" x="309.008962" y="154.215178" style="fill: #0000ff; stroke: #0000ff"/>
     <use xlink:href="#m8475118980" x="314.500215" y="153.582531" style="fill: #0000ff; stroke: #0000ff"/>
     <use xlink:href="#m8475118980" x="319.919422" y="152.794232" style="fill: #0000ff; stroke: #0000ff"/>
     <use xlink:href="#m8475118980" x="325.269037" y="151.814674" style="fill: #0000ff; stroke: #0000ff"/>
     <use xlink:href="#m8475118980" x="330.551378" y="150.60068" style="fill: #0000ff; stroke: #0000ff"/>
     <use xlink:href="#m8475118980" x="335.768636" y="149.100005" style="fill: #0000ff; stroke: #0000ff"/>
     <use xlink:href="#m8475118980" x="340.922886" y="147.249558" style="fill: #0000ff; stroke: #0000ff"/>
     <use xlink:href="#m8475118980" x="346.016094" y="144.973317" style="fill: #0000ff; stroke: #0000ff"/>
     <use xlink:href="#m8475118980" x="351.050127" y="142.179851" style="fill: #0000ff; stroke: #0000ff"/>
     <use xlink:href="#m8475118980" x="356.026759" y="138.759412" style="fill: #0000ff; stroke: #0000ff"/>
     <use xlink:href="#m8475118980" x="360.947676" y="134.580512" style="fill: #0000ff; stroke: #0000ff"/>
     <use xlink:href="#m8475118980" x="365.814484" y="129.485902" style="fill: #0000ff; stroke: #0000ff"/>
     <use xlink:href="#m8475118980" x="370.628713" y="123.287862" style="fill: #0000ff; stroke: #0000ff"/>
     <use xlink:href="#m8475118980" x="375.391822" y="115.762678" style="fill: #0000ff; stroke: #0000ff"/>
     <use xlink:href="#m8475118980" x="380.105206" y="106.644193" style="fill: #0000ff; stroke: #0000ff"/>
     <use xlink:href="#m8475118980" x="384.770196" y="95.616277" style="fill: #0000ff; stroke: #0000ff"/>
     <use xlink:href="#m8475118980" x="389.388066" y="82.304036" style="fill: #0000ff; stroke: #0000ff"/>
     <use xlink:href="#m8475118980" x="393.960036" y="66.263591" style="fill: #0000ff; stroke: #0000ff"/>
     <use xlink:href="#m8475118980" x="398.487273" y="46.970182" style="fill: #0000ff; stroke: #0000ff"/>
    </g>
   </g>
   <g id="line2d_9">
    <path d="M 73.832727 156.600033 
L 85.305138 156.600033 
L 96.233561 156.600033 
L 106.687668 156.600033 
L 116.723243 156.600033 
L 126.385775 156.600033 
L 135.712937 156.600033 
L 144.736354 156.600033 
L 153.482883 156.600033 
L 161.975567 156.600033 
L 170.23436 156.600033 
L 178.27668 156.600033 
L 186.117841 156.600033 
L 193.771397 156.600033 
L 201.249416 156.600033 
L 208.562697 156.600033 
L 215.720959 156.600033 
L 222.732979 156.600033 
L 229.606724 156.600033 
L 236.34945 156.600033 
L 242.967787 156.600033 
L 249.467818 156.600033 
L 255.855137 156.600033 
L 262.134904 156.600033 
L 268.311893 156.600033 
L 274.390529 156.600033 
L 280.374927 156.600033 
L 286.268916 156.600033 
L 292.076074 156.600033 
L 297.799744 156.600033 
L 303.44306 156.600033 
L 309.008962 156.600033 
L 314.500215 156.600033 
L 319.919422 156.600033 
L 325.269037 156.600033 
L 330.551378 156.600033 
L 335.768636 156.600033 
L 340.922886 156.600033 
L 346.016094 156.600033 
L 351.050127 156.600033 
L 356.026759 156.600033 
L 360.947676 156.600033 
L 365.814484 156.600033 
L 370.628713 156.600033 
L 375.391822 156.600033 
L 380.105206 156.600033 
L 384.770196 156.600033 
L 389.388066 156.600033 
L 393.960036 156.600033 
L 398.487273 156.600033 
" clip-path="url(#p7a2ed679e1)" style="fill: none; stroke: #ff0000; stroke-width: 1.5; stroke-linecap: square"/>
    <defs>
     <path id="me725c7f2cd" d="M -3 3 
L 3 3 
L 3 -3 
L -3 -3 
z
" style="stroke: #ff0000; stroke-linejoin: miter"/>
    </defs>
    <g clip-path="url(#p7a2ed679e1)">
     <use xlink:href="#me725c7f2cd" x="73.832727" y="156.600033" style="fill: #ff0000; stroke: #ff0000; stroke-linejoin: miter"/>
     <use xlink:href="#me725c7f2cd" x="85.305138" y="156.600033" style="fill: #ff0000; stroke: #ff0000; stroke-linejoin: miter"/>
     <use xlink:href="#me725c7f2cd" x="96.233561" y="156.600033" style="fill: #ff0000; stroke: #ff0000; stroke-linejoin: miter"/>
     <use xlink:href="#me725c7f2cd" x="106.687668" y="156.600033" style="fill: #ff0000; stroke: #ff0000; stroke-linejoin: miter"/>
     <use xlink:href="#me725c7f2cd" x="116.723243" y="156.600033" style="fill: #ff0000; stroke: #ff0000; stroke-linejoin: miter"/>
     <use xlink:href="#me725c7f2cd" x="126.385775" y="156.600033" style="fill: #ff0000; stroke: #ff0000; stroke-linejoin: miter"/>
     <use xlink:href="#me725c7f2cd" x="135.712937" y="156.600033" style="fill: #ff0000; stroke: #ff0000; stroke-linejoin: miter"/>
     <use xlink:href="#me725c7f2cd" x="144.736354" y="156.600033" style="fill: #ff0000; stroke: #ff0000; stroke-linejoin: miter"/>
     <use xlink:href="#me725c7f2cd" x="153.482883" y="156.600033" style="fill: #ff0000; stroke: #ff0000; stroke-linejoin: miter"/>
     <use xlink:href="#me725c7f2cd" x="161.975567" y="156.600033" style="fill: #ff0000; stroke: #ff0000; stroke-linejoin: miter"/>
     <use xlink:href="#me725c7f2cd" x="170.23436" y="156.600033" style="fill: #ff0000; stroke: #ff0000; stroke-linejoin: miter"/>
     <use xlink:href="#me725c7f2cd" x="178.27668" y="156.600033" style="fill: #ff0000; stroke: #ff0000; stroke-linejoin: miter"/>
     <use xlink:href="#me725c7f2cd" x="186.117841" y="156.600033" style="fill: #ff0000; stroke: #ff0000; stroke-linejoin: miter"/>
     <use xlink:href="#me725c7f2cd" x="193.771397" y="156.600033" style="fill: #ff0000; stroke: #ff0000; stroke-linejoin: miter"/>
     <use xlink:href="#me725c7f2cd" x="201.249416" y="156.600033" style="fill: #ff0000; stroke: #ff0000; stroke-linejoin: miter"/>
     <use xlink:href="#me725c7f2cd" x="208.562697" y="156.600033" style="fill: #ff0000; stroke: #ff0000; stroke-linejoin: miter"/>
     <use xlink:href="#me725c7f2cd" x="215.720959" y="156.600033" style="fill: #ff0000; stroke: #ff0000; stroke-linejoin: miter"/>
     <use xlink:href="#me725c7f2cd" x="222.732979" y="156.600033" style="fill: #ff0000; stroke: #ff0000; stroke-linejoin: miter"/>
     <use xlink:href="#me725c7f2cd" x="229.606724" y="156.600033" style="fill: #ff0000; stroke: #ff0000; stroke-linejoin: miter"/>
     <use xlink:href="#me725c7f2cd" x="236.34945" y="156.600033" style="fill: #ff0000; stroke: #ff0000; stroke-linejoin: miter"/>
     <use xlink:href="#me725c7f2cd" x="242.967787" y="156.600033" style="fill: #ff0000; stroke: #ff0000; stroke-linejoin: miter"/>
     <use xlink:href="#me725c7f2cd" x="249.467818" y="156.600033" style="fill: #ff0000; stroke: #ff0000; stroke-linejoin: miter"/>
     <use xlink:href="#me725c7f2cd" x="255.855137" y="156.600033" style="fill: #ff0000; stroke: #ff0000; stroke-linejoin: miter"/>
     <use xlink:href="#me725c7f2cd" x="262.134904" y="156.600033" style="fill: #ff0000; stroke: #ff0000; stroke-linejoin: miter"/>
     <use xlink:href="#me725c7f2cd" x="268.311893" y="156.600033" style="fill: #ff0000; stroke: #ff0000; stroke-linejoin: miter"/>
     <use xlink:href="#me725c7f2cd" x="274.390529" y="156.600033" style="fill: #ff0000; stroke: #ff0000; stroke-linejoin: miter"/>
     <use xlink:href="#me725c7f2cd" x="280.374927" y="156.600033" style="fill: #ff0000; stroke: #ff0000; stroke-linejoin: miter"/>
     <use xlink:href="#me725c7f2cd" x="286.268916" y="156.600033" style="fill: #ff0000; stroke: #ff0000; stroke-linejoin: miter"/>
     <use xlink:href="#me725c7f2cd" x="292.076074" y="156.600033" style="fill: #ff0000; stroke: #ff0000; stroke-linejoin: miter"/>
     <use xlink:href="#me725c7f2cd" x="297.799744" y="156.600033" style="fill: #ff0000; stroke: #ff0000; stroke-linejoin: miter"/>
     <use xlink:href="#me725c7f2cd" x="303.44306" y="156.600033" style="fill: #ff0000; stroke: #ff0000; stroke-linejoin: miter"/>
     <use xlink:href="#me725c7f2cd" x="309.008962" y="156.600033" style="fill: #ff0000; stroke: #ff0000; stroke-linejoin: miter"/>
     <use xlink:href="#me725c7f2cd" x="314.500215" y="156.600033" style="fill: #ff0000; stroke: #ff0000; stroke-linejoin: miter"/>
     <use xlink:href="#me725c7f2cd" x="319.919422" y="156.600033" style="fill: #ff0000; stroke: #ff0000; stroke-linejoin: miter"/>
     <use xlink:href="#me725c7f2cd" x="325.269037" y="156.600033" style="fill: #ff0000; stroke: #ff0000; stroke-linejoin: miter"/>
     <use xlink:href="#me725c7f2cd" x="330.551378" y="156.600033" style="fill: #ff0000; stroke: #ff0000; stroke-linejoin: miter"/>
     <use xlink:href="#me725c7f2cd" x="335.768636" y="156.600033" style="fill: #ff0000; stroke: #ff0000; stroke-linejoin: miter"/>
     <use xlink:href="#me725c7f2cd" x="340.922886" y="156.600033" style="fill: #ff0000; stroke: #ff0000; stroke-linejoin: miter"/>
     <use xlink:href="#me725c7f2cd" x="346.016094" y="156.600033" style="fill: #ff0000; stroke: #ff0000; stroke-linejoin: miter"/>
     <use xlink:href="#me725c7f2cd" x="351.050127" y="156.600033" style="fill: #ff0000; stroke: #ff0000; stroke-linejoin: miter"/>
     <use xlink:href="#me725c7f2cd" x="356.026759" y="156.600033" style="fill: #ff0000; stroke: #ff0000; stroke-linejoin: miter"/>
     <use xlink:href="#me725c7f2cd" x="360.947676" y="156.600033" style="fill: #ff0000; stroke: #ff0000; stroke-linejoin: miter"/>
     <use xlink:href="#me725c7f2cd" x="365.814484" y="156.600033" style="fill: #ff0000; stroke: #ff0000; stroke-linejoin: miter"/>
     <use xlink:href="#me725c7f2cd" x="370.628713" y="156.600033" style="fill: #ff0000; stroke: #ff0000; stroke-linejoin: miter"/>
     <use xlink:href="#me725c7f2cd" x="375.391822" y="156.600033" style="fill: #ff0000; stroke: #ff0000; stroke-linejoin: miter"/>
     <use xlink:href="#me725c7f2cd" x="380.105206" y="156.600033" style="fill: #ff0000; stroke: #ff0000; stroke-linejoin: miter"/>
     <use xlink:href="#me725c7f2cd" x="384.770196" y="156.600033" style="fill: #ff0000; stroke: #ff0000; stroke-linejoin: miter"/>
     <use xlink:href="#me725c7f2cd" x="389.388066" y="156.600033" style="fill: #ff0000; stroke: #ff0000; stroke-linejoin: miter"/>
     <use xlink:href="#me725c7f2cd" x="393.960036" y="156.600033" style="fill: #ff0000; stroke: #ff0000; stroke-linejoin: miter"/>
     <use xlink:href="#me725c7f2cd" x="398.487273" y="156.600033" style="fill: #ff0000; stroke: #ff0000; stroke-linejoin: miter"/>
    </g>
   </g>
   <g id="patch_3">
    <path d="M 57.6 162.432 
L 57.6 41.472 
" style="fill: none; stroke: #000000; stroke-width: 0.8; stroke-linejoin: miter; stroke-linecap: square"/>
   </g>
   <g id="patch_4">
    <path d="M 414.72 162.432 
L 414.72 41.472 
" style="fill: none; stroke: #000000; stroke-width: 0.8; stroke-linejoin: miter; stroke-linecap: square"/>
   </g>
   <g id="patch_5">
    <path d="M 57.6 162.432 
L 414.72 162.432 
" style="fill: none; stroke: #000000; stroke-width: 0.8; stroke-linejoin: miter; stroke-linecap: square"/>
   </g>
   <g id="patch_6">
    <path d="M 57.6 41.472 
L 414.72 41.472 
" style="fill: none; stroke: #000000; stroke-width: 0.8; stroke-linejoin: miter; stroke-linecap: square"/>
   </g>
  </g>
  <g id="axes_2">
   <g id="patch_7">
    <path d="M 57.6 307.584 
L 414.72 307.584 
L 414.72 186.624 
L 57.6 186.624 
z
" style="fill: #ffffff"/>
   </g>
   <g id="matplotlib.axis_3">
    <g id="xtick_5">
     <g id="line2d_10">
      <g>
       <use xlink:href="#md631b458b7" x="129.617689" y="307.584" style="stroke: #000000; stroke-width: 0.8"/>
      </g>
     </g>
     <g id="text_9">
      <!-- 900 -->
      <g transform="translate(120.073939 322.182437)scale(0.1 -0.1)">
       <use xlink:href="#DejaVuSans-39"/>
       <use xlink:href="#DejaVuSans-30" x="63.623047"/>
       <use xlink:href="#DejaVuSans-30" x="127.246094"/>
      </g>
     </g>
    </g>
    <g id="xtick_6">
     <g id="line2d_11">
      <g>
       <use xlink:href="#md631b458b7" x="207.583199" y="307.584" style="stroke: #000000; stroke-width: 0.8"/>
      </g>
     </g>
     <g id="text_10">
      <!-- 1000 -->
      <g transform="translate(194.858199 322.182437)scale(0.1 -0.1)">
       <use xlink:href="#DejaVuSans-31"/>
       <use xlink:href="#DejaVuSans-30" x="63.623047"/>
       <use xlink:href="#DejaVuSans-30" x="127.246094"/>
       <use xlink:href="#DejaVuSans-30" x="190.869141"/>
      </g>
     </g>
    </g>
    <g id="xtick_7">
     <g id="line2d_12">
      <g>
       <use xlink:href="#md631b458b7" x="285.54871" y="307.584" style="stroke: #000000; stroke-width: 0.8"/>
      </g>
     </g>
     <g id="text_11">
      <!-- 1100 -->
      <g transform="translate(272.82371 322.182437)scale(0.1 -0.1)">
       <use xlink:href="#DejaVuSans-31"/>
       <use xlink:href="#DejaVuSans-31" x="63.623047"/>
       <use xlink:href="#DejaVuSans-30" x="127.246094"/>
       <use xlink:href="#DejaVuSans-30" x="190.869141"/>
      </g>
     </g>
    </g>
    <g id="xtick_8">
     <g id="line2d_13">
      <g>
       <use xlink:href="#md631b458b7" x="363.51422" y="307.584" style="stroke: #000000; stroke-width: 0.8"/>
      </g>
     </g>
     <g id="text_12">
      <!-- 1200 -->
      <g transform="translate(350.78922 322.182437)scale(0.1 -0.1)">
       <use xlink:href="#DejaVuSans-31"/>
       <use xlink:href="#DejaVuSans-32" x="63.623047"/>
       <use xlink:href="#DejaVuSans-30" x="127.246094"/>
       <use xlink:href="#DejaVuSans-30" x="190.869141"/>
      </g>
     </g>
    </g>
    <g id="text_13">
     <!-- HS length (nm) -->
     <g transform="translate(198.169375 335.860562)scale(0.1 -0.1)">
      <defs>
       <path id="DejaVuSans-48" d="M 628 4666 
L 1259 4666 
L 1259 2753 
L 3553 2753 
L 3553 4666 
L 4184 4666 
L 4184 0 
L 3553 0 
L 3553 2222 
L 1259 2222 
L 1259 0 
L 628 0 
L 628 4666 
z
" transform="scale(0.015625)"/>
       <path id="DejaVuSans-53" d="M 3425 4513 
L 3425 3897 
Q 3066 4069 2747 4153 
Q 2428 4238 2131 4238 
Q 1616 4238 1336 4038 
Q 1056 3838 1056 3469 
Q 1056 3159 1242 3001 
Q 1428 2844 1947 2747 
L 2328 2669 
Q 3034 2534 3370 2195 
Q 3706 1856 3706 1288 
Q 3706 609 3251 259 
Q 2797 -91 1919 -91 
Q 1588 -91 1214 -16 
Q 841 59 441 206 
L 441 856 
Q 825 641 1194 531 
Q 1563 422 1919 422 
Q 2459 422 2753 634 
Q 3047 847 3047 1241 
Q 3047 1584 2836 1778 
Q 2625 1972 2144 2069 
L 1759 2144 
Q 1053 2284 737 2584 
Q 422 2884 422 3419 
Q 422 4038 858 4394 
Q 1294 4750 2059 4750 
Q 2388 4750 2728 4690 
Q 3069 4631 3425 4513 
z
" transform="scale(0.015625)"/>
       <path id="DejaVuSans-6c" d="M 603 4863 
L 1178 4863 
L 1178 0 
L 603 0 
L 603 4863 
z
" transform="scale(0.015625)"/>
       <path id="DejaVuSans-6e" d="M 3513 2113 
L 3513 0 
L 2938 0 
L 2938 2094 
Q 2938 2591 2744 2837 
Q 2550 3084 2163 3084 
Q 1697 3084 1428 2787 
Q 1159 2491 1159 1978 
L 1159 0 
L 581 0 
L 581 3500 
L 1159 3500 
L 1159 2956 
Q 1366 3272 1645 3428 
Q 1925 3584 2291 3584 
Q 2894 3584 3203 3211 
Q 3513 2838 3513 2113 
z
" transform="scale(0.015625)"/>
       <path id="DejaVuSans-67" d="M 2906 1791 
Q 2906 2416 2648 2759 
Q 2391 3103 1925 3103 
Q 1463 3103 1205 2759 
Q 947 2416 947 1791 
Q 947 1169 1205 825 
Q 1463 481 1925 481 
Q 2391 481 2648 825 
Q 2906 1169 2906 1791 
z
M 3481 434 
Q 3481 -459 3084 -895 
Q 2688 -1331 1869 -1331 
Q 1566 -1331 1297 -1286 
Q 1028 -1241 775 -1147 
L 775 -588 
Q 1028 -725 1275 -790 
Q 1522 -856 1778 -856 
Q 2344 -856 2625 -561 
Q 2906 -266 2906 331 
L 2906 616 
Q 2728 306 2450 153 
Q 2172 0 1784 0 
Q 1141 0 747 490 
Q 353 981 353 1791 
Q 353 2603 747 3093 
Q 1141 3584 1784 3584 
Q 2172 3584 2450 3431 
Q 2728 3278 2906 2969 
L 2906 3500 
L 3481 3500 
L 3481 434 
z
" transform="scale(0.015625)"/>
       <path id="DejaVuSans-68" d="M 3513 2113 
L 3513 0 
L 2938 0 
L 2938 2094 
Q 2938 2591 2744 2837 
Q 2550 3084 2163 3084 
Q 1697 3084 1428 2787 
Q 1159 2491 1159 1978 
L 1159 0 
L 581 0 
L 581 4863 
L 1159 4863 
L 1159 2956 
Q 1366 3272 1645 3428 
Q 1925 3584 2291 3584 
Q 2894 3584 3203 3211 
Q 3513 2838 3513 2113 
z
" transform="scale(0.015625)"/>
      </defs>
      <use xlink:href="#DejaVuSans-48"/>
      <use xlink:href="#DejaVuSans-53" x="75.195312"/>
      <use xlink:href="#DejaVuSans-20" x="138.671875"/>
      <use xlink:href="#DejaVuSans-6c" x="170.458984"/>
      <use xlink:href="#DejaVuSans-65" x="198.242188"/>
      <use xlink:href="#DejaVuSans-6e" x="259.765625"/>
      <use xlink:href="#DejaVuSans-67" x="323.144531"/>
      <use xlink:href="#DejaVuSans-74" x="386.621094"/>
      <use xlink:href="#DejaVuSans-68" x="425.830078"/>
      <use xlink:href="#DejaVuSans-20" x="489.208984"/>
      <use xlink:href="#DejaVuSans-28" x="520.996094"/>
      <use xlink:href="#DejaVuSans-6e" x="560.009766"/>
      <use xlink:href="#DejaVuSans-6d" x="623.388672"/>
      <use xlink:href="#DejaVuSans-29" x="720.800781"/>
     </g>
    </g>
   </g>
   <g id="matplotlib.axis_4">
    <g id="ytick_4">
     <g id="line2d_14">
      <g>
       <use xlink:href="#mef079e473b" x="57.6" y="307.584" style="stroke: #000000; stroke-width: 0.8"/>
      </g>
     </g>
     <g id="text_14">
      <!-- −20 -->
      <g transform="translate(29.495313 311.383219)scale(0.1 -0.1)">
       <defs>
        <path id="DejaVuSans-2212" d="M 678 2272 
L 4684 2272 
L 4684 1741 
L 678 1741 
L 678 2272 
z
" transform="scale(0.015625)"/>
       </defs>
       <use xlink:href="#DejaVuSans-2212"/>
       <use xlink:href="#DejaVuSans-32" x="83.789062"/>
       <use xlink:href="#DejaVuSans-30" x="147.412109"/>
      </g>
     </g>
    </g>
    <g id="ytick_5">
     <g id="line2d_15">
      <g>
       <use xlink:href="#mef079e473b" x="57.6" y="277.344" style="stroke: #000000; stroke-width: 0.8"/>
      </g>
     </g>
     <g id="text_15">
      <!-- −10 -->
      <g transform="translate(29.495313 281.143219)scale(0.1 -0.1)">
       <use xlink:href="#DejaVuSans-2212"/>
       <use xlink:href="#DejaVuSans-31" x="83.789062"/>
       <use xlink:href="#DejaVuSans-30" x="147.412109"/>
      </g>
     </g>
    </g>
    <g id="ytick_6">
     <g id="line2d_16">
      <g>
       <use xlink:href="#mef079e473b" x="57.6" y="247.104" style="stroke: #000000; stroke-width: 0.8"/>
      </g>
     </g>
     <g id="text_16">
      <!-- 0 -->
      <g transform="translate(44.2375 250.903219)scale(0.1 -0.1)">
       <use xlink:href="#DejaVuSans-30"/>
      </g>
     </g>
    </g>
    <g id="ytick_7">
     <g id="line2d_17">
      <g>
       <use xlink:href="#mef079e473b" x="57.6" y="216.864" style="stroke: #000000; stroke-width: 0.8"/>
      </g>
     </g>
     <g id="text_17">
      <!-- 10 -->
      <g transform="translate(37.875 220.663219)scale(0.1 -0.1)">
       <use xlink:href="#DejaVuSans-31"/>
       <use xlink:href="#DejaVuSans-30" x="63.623047"/>
      </g>
     </g>
    </g>
    <g id="ytick_8">
     <g id="line2d_18">
      <g>
       <use xlink:href="#mef079e473b" x="57.6" y="186.624" style="stroke: #000000; stroke-width: 0.8"/>
      </g>
     </g>
     <g id="text_18">
      <!-- 20 -->
      <g transform="translate(37.875 190.423219)scale(0.1 -0.1)">
       <use xlink:href="#DejaVuSans-32"/>
       <use xlink:href="#DejaVuSans-30" x="63.623047"/>
      </g>
     </g>
    </g>
    <g id="text_19">
     <!-- LV pressure (mmHg) -->
     <g transform="translate(23.415625 298.106344)rotate(-90)scale(0.1 -0.1)">
      <defs>
       <path id="DejaVuSans-4c" d="M 628 4666 
L 1259 4666 
L 1259 531 
L 3531 531 
L 3531 0 
L 628 0 
L 628 4666 
z
" transform="scale(0.015625)"/>
       <path id="DejaVuSans-56" d="M 1831 0 
L 50 4666 
L 709 4666 
L 2188 738 
L 3669 4666 
L 4325 4666 
L 2547 0 
L 1831 0 
z
" transform="scale(0.015625)"/>
       <path id="DejaVuSans-70" d="M 1159 525 
L 1159 -1331 
L 581 -1331 
L 581 3500 
L 1159 3500 
L 1159 2969 
Q 1341 3281 1617 3432 
Q 1894 3584 2278 3584 
Q 2916 3584 3314 3078 
Q 3713 2572 3713 1747 
Q 3713 922 3314 415 
Q 2916 -91 2278 -91 
Q 1894 -91 1617 61 
Q 1341 213 1159 525 
z
M 3116 1747 
Q 3116 2381 2855 2742 
Q 2594 3103 2138 3103 
Q 1681 3103 1420 2742 
Q 1159 2381 1159 1747 
Q 1159 1113 1420 752 
Q 1681 391 2138 391 
Q 2594 391 2855 752 
Q 3116 1113 3116 1747 
z
" transform="scale(0.015625)"/>
       <path id="DejaVuSans-75" d="M 544 1381 
L 544 3500 
L 1119 3500 
L 1119 1403 
Q 1119 906 1312 657 
Q 1506 409 1894 409 
Q 2359 409 2629 706 
Q 2900 1003 2900 1516 
L 2900 3500 
L 3475 3500 
L 3475 0 
L 2900 0 
L 2900 538 
Q 2691 219 2414 64 
Q 2138 -91 1772 -91 
Q 1169 -91 856 284 
Q 544 659 544 1381 
z
M 1991 3584 
L 1991 3584 
z
" transform="scale(0.015625)"/>
      </defs>
      <use xlink:href="#DejaVuSans-4c"/>
      <use xlink:href="#DejaVuSans-56" x="44.712891"/>
      <use xlink:href="#DejaVuSans-20" x="113.121094"/>
      <use xlink:href="#DejaVuSans-70" x="144.908203"/>
      <use xlink:href="#DejaVuSans-72" x="208.384766"/>
      <use xlink:href="#DejaVuSans-65" x="247.248047"/>
      <use xlink:href="#DejaVuSans-73" x="308.771484"/>
      <use xlink:href="#DejaVuSans-73" x="360.871094"/>
      <use xlink:href="#DejaVuSans-75" x="412.970703"/>
      <use xlink:href="#DejaVuSans-72" x="476.349609"/>
      <use xlink:href="#DejaVuSans-65" x="515.212891"/>
      <use xlink:href="#DejaVuSans-20" x="576.736328"/>
      <use xlink:href="#DejaVuSans-28" x="608.523438"/>
      <use xlink:href="#DejaVuSans-6d" x="647.537109"/>
      <use xlink:href="#DejaVuSans-6d" x="744.949219"/>
      <use xlink:href="#DejaVuSans-48" x="842.361328"/>
      <use xlink:href="#DejaVuSans-67" x="917.556641"/>
      <use xlink:href="#DejaVuSans-29" x="981.033203"/>
     </g>
    </g>
   </g>
   <g id="line2d_19">
    <path d="M 73.832727 253.070403 
L 85.305138 250.436384 
L 96.233561 249.009612 
L 106.687668 248.211622 
L 116.723243 247.753002 
L 126.385775 247.483248 
L 135.712937 247.321444 
L 144.736354 247.222798 
L 153.482883 247.161873 
L 161.975567 247.12389 
L 170.23436 247.099799 
L 178.27668 247.075506 
L 186.117841 247.044516 
L 193.771397 247.004834 
L 201.249416 246.953958 
L 208.562697 246.888762 
L 215.720959 246.805345 
L 222.732979 246.698857 
L 229.606724 246.563289 
L 236.34945 246.39121 
L 242.967787 246.173465 
L 249.467818 245.898803 
L 255.855137 245.553438 
L 262.134904 245.120521 
L 268.311893 244.579515 
L 274.390529 243.905452 
L 280.374927 243.068044 
L 286.268916 242.030649 
L 292.076074 240.749026 
L 297.799744 239.169887 
L 303.44306 237.229182 
L 309.008962 234.850083 
L 314.500215 231.940623 
L 319.919422 228.390932 
L 325.269037 224.069995 
L 330.551378 218.821876 
L 335.768636 212.461308 
L 340.922886 204.768563 
L 346.016094 195.483484 
L 351.050127 184.298553 
L 356.026759 170.850859 
L 360.947676 154.712791 
L 365.814484 135.381272 
L 370.628713 112.265324 
L 375.391822 84.671721 
L 380.105206 51.788457 
L 384.770196 12.665703 
L 386.128148 -1 
" clip-path="url(#pdc173dac05)" style="fill: none; stroke: #008000; stroke-width: 1.5; stroke-linecap: square"/>
    <defs>
     <path id="ma17af18c4f" d="M 0 4.242641 
L 2.545584 0 
L 0 -4.242641 
L -2.545584 0 
z
" style="stroke: #008000; stroke-linejoin: miter"/>
    </defs>
    <g clip-path="url(#pdc173dac05)">
     <use xlink:href="#ma17af18c4f" x="73.832727" y="253.070403" style="fill: #008000; stroke: #008000; stroke-linejoin: miter"/>
     <use xlink:href="#ma17af18c4f" x="85.305138" y="250.436384" style="fill: #008000; stroke: #008000; stroke-linejoin: miter"/>
     <use xlink:href="#ma17af18c4f" x="96.233561" y="249.009612" style="fill: #008000; stroke: #008000; stroke-linejoin: miter"/>
     <use xlink:href="#ma17af18c4f" x="106.687668" y="248.211622" style="fill: #008000; stroke: #008000; stroke-linejoin: miter"/>
     <use xlink:href="#ma17af18c4f" x="116.723243" y="247.753002" style="fill: #008000; stroke: #008000; stroke-linejoin: miter"/>
     <use xlink:href="#ma17af18c4f" x="126.385775" y="247.483248" style="fill: #008000; stroke: #008000; stroke-linejoin: miter"/>
     <use xlink:href="#ma17af18c4f" x="135.712937" y="247.321444" style="fill: #008000; stroke: #008000; stroke-linejoin: miter"/>
     <use xlink:href="#ma17af18c4f" x="144.736354" y="247.222798" style="fill: #008000; stroke: #008000; stroke-linejoin: miter"/>
     <use xlink:href="#ma17af18c4f" x="153.482883" y="247.161873" style="fill: #008000; stroke: #008000; stroke-linejoin: miter"/>
     <use xlink:href="#ma17af18c4f" x="161.975567" y="247.12389" style="fill: #008000; stroke: #008000; stroke-linejoin: miter"/>
     <use xlink:href="#ma17af18c4f" x="170.23436" y="247.099799" style="fill: #008000; stroke: #008000; stroke-linejoin: miter"/>
     <use xlink:href="#ma17af18c4f" x="178.27668" y="247.075506" style="fill: #008000; stroke: #008000; stroke-linejoin: miter"/>
     <use xlink:href="#ma17af18c4f" x="186.117841" y="247.044516" style="fill: #008000; stroke: #008000; stroke-linejoin: miter"/>
     <use xlink:href="#ma17af18c4f" x="193.771397" y="247.004834" style="fill: #008000; stroke: #008000; stroke-linejoin: miter"/>
     <use xlink:href="#ma17af18c4f" x="201.249416" y="246.953958" style="fill: #008000; stroke: #008000; stroke-linejoin: miter"/>
     <use xlink:href="#ma17af18c4f" x="208.562697" y="246.888762" style="fill: #008000; stroke: #008000; stroke-linejoin: miter"/>
     <use xlink:href="#ma17af18c4f" x="215.720959" y="246.805345" style="fill: #008000; stroke: #008000; stroke-linejoin: miter"/>
     <use xlink:href="#ma17af18c4f" x="222.732979" y="246.698857" style="fill: #008000; stroke: #008000; stroke-linejoin: miter"/>
     <use xlink:href="#ma17af18c4f" x="229.606724" y="246.563289" style="fill: #008000; stroke: #008000; stroke-linejoin: miter"/>
     <use xlink:href="#ma17af18c4f" x="236.34945" y="246.39121" style="fill: #008000; stroke: #008000; stroke-linejoin: miter"/>
     <use xlink:href="#ma17af18c4f" x="242.967787" y="246.173465" style="fill: #008000; stroke: #008000; stroke-linejoin: miter"/>
     <use xlink:href="#ma17af18c4f" x="249.467818" y="245.898803" style="fill: #008000; stroke: #008000; stroke-linejoin: miter"/>
     <use xlink:href="#ma17af18c4f" x="255.855137" y="245.553438" style="fill: #008000; stroke: #008000; stroke-linejoin: miter"/>
     <use xlink:href="#ma17af18c4f" x="262.134904" y="245.120521" style="fill: #008000; stroke: #008000; stroke-linejoin: miter"/>
     <use xlink:href="#ma17af18c4f" x="268.311893" y="244.579515" style="fill: #008000; stroke: #008000; stroke-linejoin: miter"/>
     <use xlink:href="#ma17af18c4f" x="274.390529" y="243.905452" style="fill: #008000; stroke: #008000; stroke-linejoin: miter"/>
     <use xlink:href="#ma17af18c4f" x="280.374927" y="243.068044" style="fill: #008000; stroke: #008000; stroke-linejoin: miter"/>
     <use xlink:href="#ma17af18c4f" x="286.268916" y="242.030649" style="fill: #008000; stroke: #008000; stroke-linejoin: miter"/>
     <use xlink:href="#ma17af18c4f" x="292.076074" y="240.749026" style="fill: #008000; stroke: #008000; stroke-linejoin: miter"/>
     <use xlink:href="#ma17af18c4f" x="297.799744" y="239.169887" style="fill: #008000; stroke: #008000; stroke-linejoin: miter"/>
     <use xlink:href="#ma17af18c4f" x="303.44306" y="237.229182" style="fill: #008000; stroke: #008000; stroke-linejoin: miter"/>
     <use xlink:href="#ma17af18c4f" x="309.008962" y="234.850083" style="fill: #008000; stroke: #008000; stroke-linejoin: miter"/>
     <use xlink:href="#ma17af18c4f" x="314.500215" y="231.940623" style="fill: #008000; stroke: #008000; stroke-linejoin: miter"/>
     <use xlink:href="#ma17af18c4f" x="319.919422" y="228.390932" style="fill: #008000; stroke: #008000; stroke-linejoin: miter"/>
     <use xlink:href="#ma17af18c4f" x="325.269037" y="224.069995" style="fill: #008000; stroke: #008000; stroke-linejoin: miter"/>
     <use xlink:href="#ma17af18c4f" x="330.551378" y="218.821876" style="fill: #008000; stroke: #008000; stroke-linejoin: miter"/>
     <use xlink:href="#ma17af18c4f" x="335.768636" y="212.461308" style="fill: #008000; stroke: #008000; stroke-linejoin: miter"/>
     <use xlink:href="#ma17af18c4f" x="340.922886" y="204.768563" style="fill: #008000; stroke: #008000; stroke-linejoin: miter"/>
     <use xlink:href="#ma17af18c4f" x="346.016094" y="195.483484" style="fill: #008000; stroke: #008000; stroke-linejoin: miter"/>
     <use xlink:href="#ma17af18c4f" x="351.050127" y="184.298553" style="fill: #008000; stroke: #008000; stroke-linejoin: miter"/>
     <use xlink:href="#ma17af18c4f" x="356.026759" y="170.850859" style="fill: #008000; stroke: #008000; stroke-linejoin: miter"/>
     <use xlink:href="#ma17af18c4f" x="360.947676" y="154.712791" style="fill: #008000; stroke: #008000; stroke-linejoin: miter"/>
     <use xlink:href="#ma17af18c4f" x="365.814484" y="135.381272" style="fill: #008000; stroke: #008000; stroke-linejoin: miter"/>
     <use xlink:href="#ma17af18c4f" x="370.628713" y="112.265324" style="fill: #008000; stroke: #008000; stroke-linejoin: miter"/>
     <use xlink:href="#ma17af18c4f" x="375.391822" y="84.671721" style="fill: #008000; stroke: #008000; stroke-linejoin: miter"/>
     <use xlink:href="#ma17af18c4f" x="380.105206" y="51.788457" style="fill: #008000; stroke: #008000; stroke-linejoin: miter"/>
     <use xlink:href="#ma17af18c4f" x="384.770196" y="12.665703" style="fill: #008000; stroke: #008000; stroke-linejoin: miter"/>
     <use xlink:href="#ma17af18c4f" x="386.128148" y="-1" style="fill: #008000; stroke: #008000; stroke-linejoin: miter"/>
    </g>
   </g>
   <g id="patch_8">
    <path d="M 57.6 307.584 
L 57.6 186.624 
" style="fill: none; stroke: #000000; stroke-width: 0.8; stroke-linejoin: miter; stroke-linecap: square"/>
   </g>
   <g id="patch_9">
    <path d="M 414.72 307.584 
L 414.72 186.624 
" style="fill: none; stroke: #000000; stroke-width: 0.8; stroke-linejoin: miter; stroke-linecap: square"/>
   </g>
   <g id="patch_10">
    <path d="M 57.6 307.584 
L 414.72 307.584 
" style="fill: none; stroke: #000000; stroke-width: 0.8; stroke-linejoin: miter; stroke-linecap: square"/>
   </g>
   <g id="patch_11">
    <path d="M 57.6 186.624 
L 414.72 186.624 
" style="fill: none; stroke: #000000; stroke-width: 0.8; stroke-linejoin: miter; stroke-linecap: square"/>
   </g>
  </g>
 </g>
 <defs>
  <clipPath id="p7a2ed679e1">
   <rect x="57.6" y="41.472" width="357.12" height="120.96"/>
  </clipPath>
  <clipPath id="pdc173dac05">
   <rect x="57.6" y="186.624" width="357.12" height="120.96"/>
  </clipPath>
 </defs>
</svg>
